<svg width="1200" height="1200" viewBox="0 0 1200 1200" fill="none" xmlns="http://www.w3.org/2000/svg">
<rect x="0.00012207" y="0.00012207" width="1200" height="1200" rx="200" fill="black"/>
<g filter="url(#filter0_d_605_3)">
<path d="M77.1273 851.572C77.5722 843.341 80.3166 836.777 85.3604 831.88C91.1349 826.564 96.9094 821.247 102.684 815.93C111.381 808.931 120.279 802.315 129.378 796.082C138.075 789.083 147.138 781.874 156.567 774.455C163.874 770.25 166.618 763.686 164.8 754.763C165.761 740.253 166.708 720.267 167.642 694.807C168.576 669.346 170.37 641.895 173.023 612.454C175.275 582.247 178.824 551.792 183.67 521.09C189.246 489.967 196.793 461.698 206.308 436.283C215.824 410.869 228.112 389.84 243.172 373.199C258.232 356.557 276.737 347.403 298.687 345.738C317.313 344.989 333.287 348.258 346.611 355.545C359.534 362.065 362.85 371.123 356.559 382.719C349.538 394.735 341.219 406.999 331.604 419.51C322.319 430.835 315.863 443.024 312.237 456.077C303.666 486.93 299.257 519.375 299.011 553.412C298.764 587.45 296.017 619.437 290.77 649.374C309.627 634.535 330.06 611.81 352.07 581.199C374.41 549.402 396.076 514.503 417.07 476.502C438.393 437.314 457.452 397.435 474.248 356.865C491.373 315.108 503.82 278.038 511.589 245.653C519.687 212.082 522.047 184.804 518.668 163.819C515.618 141.648 504.415 131.147 485.058 132.316C466.432 133.065 447.183 137.164 427.31 144.612C407.767 150.874 388.13 159.682 368.4 171.036C349.4 181.969 330.838 194.645 312.712 209.063C294.916 222.295 278.452 236.255 263.321 250.944C248.52 264.447 231.303 283.326 211.672 307.583C192.772 331.42 174.674 356.788 157.378 383.689C140.082 410.59 125.215 437.589 112.776 464.686C100.337 491.782 93.5432 515.132 92.3951 534.734C71.3351 519.936 58.1842 502.082 52.9423 481.172C48.4312 459.842 49.1067 437.521 54.9689 414.209C60.43 390.13 69.6163 365.903 82.5278 341.525C96.17 316.726 111.18 293.633 127.559 272.245C144.267 249.67 160.881 229.641 177.403 212.158C193.523 193.909 207.358 179.468 218.907 168.834C258.597 132.037 297.843 103.471 336.644 83.1365C375.445 62.8021 417.762 51.9088 463.596 50.4565C483.684 48.8664 502.617 51.4295 520.397 58.1458C538.908 64.4417 555.297 73.9517 569.566 86.6761C583.434 98.6343 594.78 113.041 603.604 129.895C613.159 146.329 618.459 163.717 619.503 182.058C622.751 230.035 619.444 277.299 609.582 323.848C600.451 369.977 586.226 414.55 566.909 457.569C547.591 500.587 524.477 541.802 497.566 581.215C471.386 620.207 443.401 655.751 413.611 687.848C412.221 690.642 410.265 693.263 407.743 695.711C405.551 696.972 403.759 699 402.369 701.794C400.908 702.635 400.578 703.822 401.38 705.354C402.183 706.886 402.985 708.418 403.787 709.951C417.023 735.232 435.317 761.093 458.668 787.533C482.349 812.786 508.222 836.777 536.288 859.507C565.084 881.816 594.339 901.369 624.053 918.166C653.766 934.963 681.639 947.336 707.672 955.284C745.753 966.269 784.917 971.147 825.163 969.92C865.81 969.459 905.312 963.176 943.668 951.074C982.425 939.737 1018.37 923.037 1051.52 900.975C1085.79 879.258 1114.86 853.057 1138.74 822.371C1139.47 821.951 1140.23 822.506 1141.03 824.039C1144.1 826.262 1146.07 829.116 1146.94 832.601C1152.59 854.277 1150.41 876.463 1140.43 899.159C1131.57 922.2 1118.19 943.859 1100.27 964.136C1083.09 983.992 1062.68 1002.22 1039.04 1018.81C1016.53 1035.75 994.242 1048.58 972.177 1057.29C913.36 1081.17 852.145 1090.47 788.531 1085.21C724.917 1079.95 663.339 1064.04 603.796 1037.49C544.984 1010.52 490.343 975.172 439.871 931.44C388.998 886.942 346.895 837.398 313.56 782.808L288.349 797.316C282.503 800.68 280.382 803.894 281.987 806.959C280.394 834.793 281.594 862.514 285.589 890.123C289.183 916.966 293.342 943.982 298.068 971.171C303.123 997.173 308.013 1023.77 312.739 1050.96C317.063 1077.38 319.725 1104.26 320.726 1131.6C321.039 1150.36 313.366 1154.78 297.707 1144.84C283.251 1137.21 269.914 1124.45 257.694 1106.56C229.244 1063.12 207.749 1021.15 193.211 980.668C178.672 940.185 169.98 896.337 167.133 849.126C159.353 850.612 151.573 852.098 143.793 853.585C136.744 854.65 129.53 856.309 122.151 858.562C114.371 860.048 106.555 860.558 98.7037 860.091C91.583 859.204 84.3909 856.365 77.1273 851.572Z" fill="#FF31F7"/>
</g>
<defs>
<filter id="filter0_d_605_3" x="5.49963" y="9.49994" width="1189" height="1189" filterUnits="userSpaceOnUse" color-interpolation-filters="sRGB">
<feFlood flood-opacity="0" result="BackgroundImageFix"/>
<feColorMatrix in="SourceAlpha" type="matrix" values="0 0 0 0 0 0 0 0 0 0 0 0 0 0 0 0 0 0 127 0" result="hardAlpha"/>
<feOffset dy="4"/>
<feGaussianBlur stdDeviation="22.25"/>
<feComposite in2="hardAlpha" operator="out"/>
<feColorMatrix type="matrix" values="0 0 0 0 1 0 0 0 0 0.192157 0 0 0 0 0.968627 0 0 0 0.75 0"/>
<feBlend mode="normal" in2="BackgroundImageFix" result="effect1_dropShadow_605_3"/>
<feBlend mode="normal" in="SourceGraphic" in2="effect1_dropShadow_605_3" result="shape"/>
</filter>
</defs>
</svg>
